<?xml version="1.0" standalone="no"?><!DOCTYPE svg PUBLIC "-//W3C//DTD SVG 1.1//EN" "http://www.w3.org/Graphics/SVG/1.1/DTD/svg11.dtd"><svg t="1696442383195" class="icon" viewBox="0 0 1024 1024" version="1.1" xmlns="http://www.w3.org/2000/svg" p-id="6074" xmlns:xlink="http://www.w3.org/1999/xlink" width="200" height="200"><path d="M512 192c-54.92736 0-107.99104 8.66304-157.696 25.74336-46.71488 16.05632-88.30976 38.74816-123.63776 67.44064-66.21184 53.80096-102.68672 122.9824-102.68672 194.80576 0 40.30464 11.18208 79.38048 33.25952 116.14208 22.75328 37.92896 56.97536 72.58112 98.97984 100.2496 30.35136 19.98848 50.76992 51.95776 56.17664 87.90016 1.80224 11.9808 2.92864 24.08448 3.3792 36.12672 7.4752-6.18496 14.7456-12.84096 21.87264-19.968 24.14592-24.14592 56.77056-37.49888 90.50112-37.49888 5.36576 0 10.752 0.32768 16.15872 1.024 20.97152 2.6624 42.3936 4.01408 63.67232 4.01408 54.92736 0 107.99104-8.66304 157.696-25.74336 46.71488-16.05632 88.30976-38.74816 123.63776-67.44064 66.21184-53.80096 102.68672-122.9824 102.68672-194.80576s-36.4544-141.02528-102.68672-194.80576c-35.328-28.69248-76.92288-51.38432-123.63776-67.44064-49.70496-17.08032-102.76864-25.74336-157.696-25.74336zM512 64l0 0c282.76736 0 512 186.24512 512 416.01024s-229.23264 416.01024-512 416.01024c-27.15648 0-53.80096-1.7408-79.83104-5.03808-109.9776 109.9776-241.2544 129.69984-368.16896 132.58752l0-26.91072c68.52608-33.5872 128-94.74048 128-164.63872 0-9.74848-0.75776-19.33312-2.17088-28.69248-115.79392-76.26752-189.82912-192.75776-189.82912-323.29728 0-229.74464 229.23264-416.01024 512-416.01024z" fill="#444444" p-id="6075"></path></svg>