<?xml version="1.0" standalone="no"?><!DOCTYPE svg PUBLIC "-//W3C//DTD SVG 1.1//EN" "http://www.w3.org/Graphics/SVG/1.1/DTD/svg11.dtd"><svg t="1696443325843" class="icon" viewBox="0 0 1024 1024" version="1.1" xmlns="http://www.w3.org/2000/svg" p-id="9842" xmlns:xlink="http://www.w3.org/1999/xlink" width="200" height="200"><path d="M987.428571 506.294857q0 94.866286-34.304 179.419429l-11.410286 28.013714-105.691429 18.870857q-12.580571 47.396571-51.712 77.970286t-89.453714 30.573714l0 18.285714q0 7.972571-5.12 13.165714t-13.165714 5.12l-36.571429 0q-7.972571 0-13.165714-5.12t-5.12-13.165714l0-329.142857q0-7.972571 5.12-13.165714t13.165714-5.12l36.571429 0q7.972571 0 13.165714 5.12t5.12 13.165714l0 18.285714q40.594286 0 74.313143 20.260571t53.174857 54.564571l38.838857-6.875429q16.603429-54.272 16.603429-110.299429 0-84.553143-50.322286-159.451429t-135.168-119.442286-180.297143-44.544-180.297143 44.544-135.168 119.442286-50.322286 159.451429q0 56.027429 16.603429 110.299429l38.838857 6.875429q19.456-34.304 53.174857-54.564571t74.313143-20.260571l0-18.285714q0-7.972571 5.12-13.165714t13.165714-5.12l36.571429 0q7.972571 0 13.165714 5.12t5.12 13.165714l0 329.142857q0 7.972571-5.12 13.165714t-13.165714 5.12l-36.571429 0q-7.972571 0-13.165714-5.12t-5.12-13.165714l0-18.285714q-50.322286 0-89.453714-30.573714t-51.712-77.970286l-105.691429-18.870857-11.410286-28.013714q-34.304-84.553143-34.304-179.419429 0-86.308571 38.253714-166.253714t102.253714-138.605714 151.990857-93.403429 182.857143-34.889143 182.857143 34.889143 151.990857 93.403429 102.253714 138.605714 38.253714 166.253714z" fill="#444444" p-id="9843"></path></svg>