<?xml version="1.0" standalone="no"?><!DOCTYPE svg PUBLIC "-//W3C//DTD SVG 1.1//EN" "http://www.w3.org/Graphics/SVG/1.1/DTD/svg11.dtd"><svg t="1696443460513" class="icon" viewBox="0 0 1024 1024" version="1.1" xmlns="http://www.w3.org/2000/svg" p-id="1201" xmlns:xlink="http://www.w3.org/1999/xlink" width="200" height="200"><path d="M831.424 915.776c-37.568 14.4-82.528 23.104-136.416 21.888-33.024-0.736-68.608-5.152-106.752-14.144-26.528-6.272-42.144-29.504-34.912-51.84 7.232-22.368 36.928-26.144 62.72-17.216 37.504 12.864 65.888 17.696 89.28 18.592-35.168-39.712-47.776-102.88-47.776-174.24 0-120.352 35.296-217.888 155.648-217.888 26.72 0 51.136 5.056 73.216 13.856-46.112-186.208-189.216-325.152-353.376-325.152-160.352 0-292.064 132.48-339.2 312.16 5.792-0.48 11.584-0.896 17.536-0.896 120.352 0 155.648 97.568 155.648 217.888s-35.296 217.888-155.648 217.888-197.152-97.568-197.152-217.888c0-88.288 41.472-164.16 111.008-198.368 46.08-225.344 213.76-393.056 413.568-393.056 213.984 0 391.2 192.288 421.536 441.792 31.968 39.04 49.984 91.648 49.984 149.632 0 114.144-69.152 207.616-178.912 216.96zM76.512 698.816c0 85.952 48.928 155.648 134.88 155.648s93.376-69.664 93.376-155.648c0-85.952-7.424-155.648-93.376-155.648s-134.88 69.664-134.88 155.648zM813.216 543.168c-85.952 0-93.376 69.664-93.376 155.648s7.424 155.648 93.376 155.648c85.952 0 134.88-69.664 134.88-155.648s-48.928-155.648-134.88-155.648z" fill="#272636" p-id="1202"></path></svg>