<?xml version="1.0" standalone="no"?><!DOCTYPE svg PUBLIC "-//W3C//DTD SVG 1.1//EN" "http://www.w3.org/Graphics/SVG/1.1/DTD/svg11.dtd"><svg t="1696443354427" class="icon" viewBox="0 0 1024 1024" version="1.1" xmlns="http://www.w3.org/2000/svg" p-id="9981" xmlns:xlink="http://www.w3.org/1999/xlink" width="200" height="200"><path d="M475.428571 585.142857l0 219.428571q0 29.696-21.723429 51.419429t-51.419429 21.723429l-292.571429 0q-29.696 0-51.419429-21.723429t-21.723429-51.419429l0-219.428571q0-29.696 21.723429-51.419429t51.419429-21.723429l292.571429 0q29.696 0 51.419429 21.723429t21.723429 51.419429zM475.428571 146.285714l0 219.428571q0 29.696-21.723429 51.419429t-51.419429 21.723429l-292.571429 0q-29.696 0-51.419429-21.723429t-21.723429-51.419429l0-219.428571q0-29.696 21.723429-51.419429t51.419429-21.723429l292.571429 0q29.696 0 51.419429 21.723429t21.723429 51.419429zM987.428571 585.142857l0 219.428571q0 29.696-21.723429 51.419429t-51.419429 21.723429l-292.571429 0q-29.696 0-51.419429-21.723429t-21.723429-51.419429l0-219.428571q0-29.696 21.723429-51.419429t51.419429-21.723429l292.571429 0q29.696 0 51.419429 21.723429t21.723429 51.419429zM987.428571 146.285714l0 219.428571q0 29.696-21.723429 51.419429t-51.419429 21.723429l-292.571429 0q-29.696 0-51.419429-21.723429t-21.723429-51.419429l0-219.428571q0-29.696 21.723429-51.419429t51.419429-21.723429l292.571429 0q29.696 0 51.419429 21.723429t21.723429 51.419429z" fill="#444444" p-id="9982"></path></svg>