<?xml version="1.0" standalone="no"?><!DOCTYPE svg PUBLIC "-//W3C//DTD SVG 1.1//EN" "http://www.w3.org/Graphics/SVG/1.1/DTD/svg11.dtd"><svg t="1696443375933" class="icon" viewBox="0 0 1024 1024" version="1.1" xmlns="http://www.w3.org/2000/svg" p-id="10645" xmlns:xlink="http://www.w3.org/1999/xlink" width="200" height="200"><path d="M219.355429 256q0-14.848-10.825143-25.746286t-25.746286-10.825143-25.746286 10.825143-10.825143 25.746286 10.825143 25.746286 25.746286 10.825143 25.746286-10.825143 10.825143-25.746286zM877.641143 585.142857q0-19.968-12.288-46.299429t-30.573714-26.843429q8.557714-9.728 14.262857-27.136t5.705143-31.744q0-39.424-30.281143-68.022857 10.313143-18.285714 10.313143-39.424t-10.020571-41.984-27.136-29.988571q2.852571-17.115429 2.852571-32.036571 0-48.566857-28.013714-71.972571t-77.677714-23.405714l-73.142857 0q-74.825143 0-195.437714 41.691429-2.852571 1.170286-16.603429 5.997714t-20.260571 7.168-19.968 6.582857-21.723429 6.290286-18.870857 3.730286-17.993143 1.682286l-18.285714 0 0 365.714286 18.285714 0q9.142857 0 20.260571 5.12t22.820571 15.433143 22.016 20.260571 22.820571 25.161143 19.748571 24.283429 17.993143 23.405714 13.165714 17.115429q31.451429 38.838857 44.032 52.004571 23.405714 24.576 34.011429 62.537143t17.408 71.68 21.723429 48.566857q54.857143 0 73.142857-26.843429t18.285714-82.870857q0-33.718857-27.428571-91.721143t-27.428571-91.136l201.142857 0q28.598857 0 50.834286-22.016t22.308571-51.126857zM950.784 585.728q0 58.88-43.446857 102.253714t-102.838857 43.446857l-100.571429 0q27.428571 56.539429 27.428571 109.714286 0 67.437714-19.968 106.276571-19.968 39.424-58.294857 58.002286t-86.308571 18.578286q-29.110857 0-51.419429-21.138286-19.456-18.870857-30.866286-46.884571t-14.555429-51.712-10.020571-48.274286-17.700571-36.571429q-27.428571-28.598857-61.147429-72.557714-57.709714-74.825143-78.262857-88.576l-156.598857 0q-30.281143 0-51.712-21.430857t-21.430857-51.712l0-365.714286q0-30.281143 21.430857-51.712t51.712-21.430857l164.571429 0q12.580571 0 78.848-22.820571 73.142857-25.161143 127.414857-37.741714t114.322286-12.580571l64 0q80.018286 0 129.462857 45.129143t48.859429 123.465143l0 2.852571q34.304 44.032 34.304 101.741714 0 12.580571-1.682286 24.576 21.723429 38.253714 21.723429 82.285714 0 20.553143-5.12 39.424 28.013714 42.276571 28.013714 93.110857z" fill="#444444" p-id="10646"></path></svg>