<?xml version="1.0" standalone="no"?><!DOCTYPE svg PUBLIC "-//W3C//DTD SVG 1.1//EN" "http://www.w3.org/Graphics/SVG/1.1/DTD/svg11.dtd"><svg t="1696443169189" class="icon" viewBox="0 0 1024 1024" version="1.1" xmlns="http://www.w3.org/2000/svg" p-id="10315" xmlns:xlink="http://www.w3.org/1999/xlink" width="200" height="200"><path d="M486.016 972.992q-6.016 0-12-3.008-116.992-64.992-235.008-172-103.008-92.992-163.008-188-76-120.992-76-239.008 0-111.008 79.008-190.016t190.016-79.008q78.016 0 150.016 52.992 12.992 10.016 25.504 21.504t23.008 23.488 18.496 24.992q27.008-39.008 68-70.016 35.008-24.992 73.504-39.008t76.512-14.016q111.008 0 190.016 79.008t79.008 190.016q0 118.016-76 239.008-60 95.008-163.008 188-52 47.008-112.512 91.008t-84.512 58.496-38.016 22.496q-7.008 3.008-12.992 3.008zM268.992 154.016q-90.016 0-154.016 63.488t-64 153.504q0 188 220.992 388.992 99.008 88.992 214.016 158.016 116-68.992 214.016-158.016 43.008-39.008 78.496-79.008t69.504-90.496 54.016-107.008 20-112.512q0-35.008-11.008-68.512t-31.488-60-47.008-46.496-60-31.008-68.512-11.008q-63.008 0-119.488 42.496t-73.504 93.504q-3.008 8-9.504 12.512t-15.008 4.512-15.008-4.512-9.504-12.512q-4.992-16-15.488-32.512t-24.512-31.488-32-28.512-36.992-23.008-40.992-15.008-43.008-5.504z" fill="#000000" p-id="10316"></path></svg>