<?xml version="1.0" standalone="no"?><!DOCTYPE svg PUBLIC "-//W3C//DTD SVG 1.1//EN" "http://www.w3.org/Graphics/SVG/1.1/DTD/svg11.dtd"><svg t="1696443193783" class="icon" viewBox="0 0 1025 1024" version="1.1" xmlns="http://www.w3.org/2000/svg" p-id="10593" xmlns:xlink="http://www.w3.org/1999/xlink" width="200.1953125" height="200"><path d="M968.033749 573.998063q35.998875-40.990719 35.998875-111.004531 0-19.999375-4.511859-37.502828t-12.511609-31.487016q-4.991844-7.99975-12.511609-15.007531t-15.487516-11.487641-17.503453-7.007781-19.487391-2.495922l-134.011812 0q108.988594-199.001781 54.014312-296.982719-16.991469-31.007031-46.494547-46.014562t-57.502203-15.007531q-4.991844 0-9.503703 1.503953t-7.99975 4.511859-5.503828 7.007781-3.007906 8.991719q-2.015937 19.999375-10.015687 42.014687t-20.511359 44.510609-28.991094 44.990594-36.990844 44.990594-44.510609 44.510609q-119.99625 107.996625-270.999531 159.003031-8.991719-19.007406-27.999125-31.487016t-40.990719-12.511609l-154.011187 0q-31.999 0-54.494297 22.495297t-22.495297 54.494297l0 460.977594q0 31.999 22.495297 54.494297t54.494297 22.495297l154.011187 0q15.007531 0 29.503078-6.495797t24.991219-17.503453 16.511484-24.991219q47.006531 6.015812 83.005406 15.487516t51.486391 16.511484 40.510734 19.999375q30.015062 16.991469 49.502453 24.511234t67.005906 15.487516 113.500453 7.99975q27.999125 0 52.990344-7.007781t44.990594-19.999375q39.006781-26.015187 47.9985-68.989844 31.007031-12.991594 51.998375-55.99825 22.015312-44.990594 22.015312-90.013187l0-7.99975q0-3.007906-0.991969-6.015812 7.007781-4.991844 12.991594-11.487641t11.487641-14.495547 9.503703-18.015437q23.007281-43.998625 23.007281-92.989094 0-32.990969-11.999625-54.014312-2.015937-2.015937-2.015937-3.007906l-0.991969 0zM230.07281 921.987188l-152.987219 0q-4.991844 0-10.015687-2.495922t-8.511734-5.503828-5.503828-7.99975-2.015937-10.015687l0-460.977594q0-10.015687 7.487766-17.503453t18.495422-7.487766l152.987219 0q11.007656 0 18.495422 7.487766t7.487766 17.503453l0 460.977594q0 19.999375-19.007406 24.991219-3.999875 0-7.007781 0.991969zM939.042655 525.999563q-11.007656 20.991344-19.007406 20.991344-11.007656 0-18.495422 7.487766t-7.487766 18.015437 7.487766 18.015437 18.495422 7.487766q3.999875 0 6.015812 3.999875 4.991844 10.015687 4.991844 28.991094 0 36.990844-15.9995 71.005781-14.015562 27.999125-24.991219 27.999125-7.007781 0-12.991594 3.007906t-9.503703 8.991719-3.487891 12.991594q0 4.991844 1.503953 8.991719t3.999875 7.007781 6.495797 6.015812q0.991969 14.015562-5.503828 40.990719t-20.511359 47.006531q-11.999625 16.991469-20.991344 16.991469-7.007781 0-12.991594 3.007906t-9.503703 8.991719-3.487891 12.991594q0 31.999-28.511109 48.990469t-67.485891 16.991469q-59.998125 0-102.012812-6.495797t-59.486141-13.503578-44.510609-22.015312q-27.007156-14.015562-44.510609-22.015312t-57.502203-18.495422-91.997125-17.503453l0-418.994906q167.002781-55.006281 298.006687-172.986594 124.988094-112.988469 152.987219-226.008937 27.007156 7.99975 39.99875 31.007031 7.007781 14.015562 9.503703 33.502953t-1.503953 52.990344-25.503203 84.509359-59.486141 114.012437q-3.007906 6.015812-3.007906 12.991594t3.007906 12.991594q7.007781 12.991594 22.015312 12.991594l187.002156 0 2.015937 2.015937q2.015937 0 3.487891 0.991969t3.007906 2.495922 2.495922 3.007906 3.007906 3.487891q3.999875 7.007781 6.495797 17.503453t2.495922 23.487266q0 35.006906-14.015562 63.006031z" fill="#000000" p-id="10594"></path></svg>