<?xml version="1.0" standalone="no"?><!DOCTYPE svg PUBLIC "-//W3C//DTD SVG 1.1//EN" "http://www.w3.org/Graphics/SVG/1.1/DTD/svg11.dtd"><svg t="1696443190998" class="icon" viewBox="0 0 1024 1024" version="1.1" xmlns="http://www.w3.org/2000/svg" p-id="10454" xmlns:xlink="http://www.w3.org/1999/xlink" width="200" height="200"><path d="M968.00175 450.001937q16.991469 19.007406 26.495172 48.990469t9.503703 62.014062q0 19.999375-4.511859 37.502828t-12.511609 31.487016q-11.007656 16.991469-27.999125 26.495172t-36.990844 9.503703l-134.011812 0q108.988594 199.001781 54.014312 296.982719-4.991844 8.991719-11.999625 17.503453t-14.015562 14.495547-15.487516 11.007656-16.511484 8.511734-15.9995 5.503828-15.487516 3.007906-14.495547 0.991969q-10.015687 0-16.991469-6.495797t-8.991719-15.487516q-3.999875-34.014937-22.495297-71.005781t-48.510484-75.485641-70.013812-74.493672q-119.99625-107.996625-270.999531-159.003031-8.991719 19.007406-27.999125 31.487016t-40.990719 12.511609l-154.011187 0q-31.999 0-54.494297-22.495297t-22.495297-54.494297l0-460.977594q0-31.999 22.495297-54.494297t54.494297-22.495297l154.011187 0q23.99925 0 43.006656 13.503578t27.999125 35.486891q47.006531-6.015812 83.005406-15.487516t51.486391-16.511484 40.510734-19.999375q30.015062-16.991469 49.502453-24.511234t67.005906-15.487516 113.500453-7.99975q27.999125 0 52.990344 7.007781t44.990594 19.999375q39.006781 26.015187 47.9985 68.989844 31.007031 12.991594 51.998375 55.99825 22.015312 44.990594 22.015312 90.013187l0 7.99975q0 3.007906-0.991969 6.015812 7.007781 4.991844 12.991594 11.487641t11.487641 14.495547 9.503703 18.015437q23.007281 43.998625 23.007281 92.989094 0 15.9995-3.007906 29.503078t-8.991719 24.511234q-2.015937 2.015937-2.015937 3.007906l-0.991969 0zM230.040811 102.012812l-152.987219 0q-11.007656 0-18.495422 7.487766t-7.487766 18.495422l0 460.977594q0 10.015687 7.487766 17.503453t18.495422 7.487766l152.987219 0q11.007656 0 18.495422-7.487766t7.487766-17.503453l0-460.977594q0-3.999875-1.503953-7.99975t-3.487891-7.007781-5.503828-5.503828-7.007781-3.999875-8.511734-1.503953zM939.010656 498.000437q-11.007656-20.991344-19.007406-20.991344-4.991844 0-10.015687-2.015937t-8.511734-5.503828-5.503828-8.511734-2.015937-10.015687q0-10.015687 7.487766-17.503453t18.495422-7.487766q3.999875 0 6.015812-3.999875 4.991844-10.015687 4.991844-28.991094 0-36.990844-15.9995-71.005781-14.015562-27.999125-24.991219-27.999125t-18.495422-7.487766-7.487766-17.503453q0-7.007781 3.007906-12.511609t8.991719-9.503703q0.991969-8.991719-1.503953-23.487266t-8.991719-32.990969-15.487516-31.487016q-11.999625-16.991469-20.991344-16.991469-11.007656 0-18.495422-7.487766t-7.487766-17.503453q0-31.999-28.511109-48.990469t-67.485891-16.991469q-46.014562 0-79.485516 3.007906t-57.502203 10.015687-36.510859 12.511609-32.510984 16.511484q-19.999375 10.015687-32.510984 15.9995t-36.510859 15.007531-54.494297 15.487516-70.493797 11.487641l0 418.994906q167.002781 55.006281 298.006687 172.986594 124.988094 112.988469 152.987219 226.008937 27.007156-7.99975 39.99875-31.007031 7.007781-14.015562 9.503703-33.502953t-1.503953-52.990344-25.503203-84.509359-59.486141-114.012437q-7.007781-12.991594 0-26.015187 3.007906-6.015812 8.991719-9.503703t12.991594-3.487891l179.002406 0q14.015562 0 22.015312-11.999625l2.015937-4.991844q2.015937-3.007906 3.007906-6.015812t1.503953-6.495797 1.503953-7.487766l0-7.99975q0.991969-3.999875 0.991969-7.99975 0-35.006906-14.015562-63.006031z" fill="#000000" p-id="10455"></path></svg>