<?xml version="1.0" standalone="no"?><!DOCTYPE svg PUBLIC "-//W3C//DTD SVG 1.1//EN" "http://www.w3.org/Graphics/SVG/1.1/DTD/svg11.dtd"><svg t="1696443141955" class="icon" viewBox="0 0 1024 1024" version="1.1" xmlns="http://www.w3.org/2000/svg" p-id="10176" xmlns:xlink="http://www.w3.org/1999/xlink" width="200" height="200"><path d="M971.04 782.304c-40.928 62.144-123.072 137.888-276.192 134.528-33.024-0.736-68.576-5.152-106.72-14.176-26.528-6.24-42.144-29.472-34.88-51.84s38.912-30.208 62.816-17.12c45.504 24.736 85.568 21.568 119.104 13.504-49.28-36.288-82.656-105.088-82.656-184.064 0-116.48 72.608-211.232 161.888-211.232 23.136 0 47.52 6.56 70.976 18.112-47.104-184.192-189.344-321.12-352.288-321.12-157.856 0-287.776 128.512-336.768 303.936 4.672-0.48 9.312-0.896 13.888-0.896 89.28 0 161.888 94.752 161.888 211.232s-72.608 211.264-161.888 211.264c-88.736 0-195.904-94.24-195.904-211.264 0-80.608 50.88-150.368 111.52-186.016 46.816-224.032 213.952-390.528 412.96-390.528 214.464 0 392 193.184 421.696 443.552 29.824 36.288 49.856 82.464 49.856 132.96 0 44.288-15.392 85.28-39.264 119.168z" fill="#000000" p-id="10177"></path></svg>