<?xml version="1.0" standalone="no"?><!DOCTYPE svg PUBLIC "-//W3C//DTD SVG 1.1//EN" "http://www.w3.org/Graphics/SVG/1.1/DTD/svg11.dtd"><svg t="1696461020566" class="icon" viewBox="0 0 1024 1024" version="1.1" xmlns="http://www.w3.org/2000/svg" p-id="1362" xmlns:xlink="http://www.w3.org/1999/xlink" width="200" height="200"><path d="M868 957.3H156c-49.6 0-90-40.4-90-90V696.8c0-49.6 40.4-90 90-90h60c16.6 0 30 13.4 30 30s-13.4 30-30 30h-60c-16.5 0-30 13.5-30 30v170.5c0 16.5 13.5 30 30 30h712c16.5 0 30-13.5 30-30V696.8c0-16.5-13.5-30-30-30h-58.9c-16.6 0-30-13.4-30-30s13.4-30 30-30H868c49.6 0 90 40.4 90 90v170.5c0 49.6-40.4 90-90 90z" p-id="1363"></path><path d="M565.8 126.4c14.5 0 26.2 11.7 26.2 26.2v334.1c0 6.6 5.4 12 12 12h102.7c11.5 0 17.4 13.7 9.5 22.1L538.3 709.4c-7.1 7.5-16.6 11.3-26.1 11.3s-19-3.8-26.1-11.3L308.2 520.7c-7.9-8.3-2-22.1 9.5-22.1h102.7c6.6 0 12-5.4 12-12v-334c0-14.5 11.7-26.2 26.2-26.2h107.2m0-60H458.6c-47.5 0-86.2 38.7-86.2 86.2v286h-54.7c-29.2 0-55.5 17.3-67.1 44.1-11.6 26.8-6.1 57.8 13.9 79.1l177.9 188.7c18 19.1 43.5 30.1 69.8 30.1 26.3 0 51.7-11 69.8-30.1l177.9-188.7c20-21.2 25.5-52.3 13.9-79.1-11.6-26.8-37.9-44.1-67.1-44.1H652v-286c0-47.5-38.7-86.2-86.2-86.2z" p-id="1364"></path></svg>