<?xml version="1.0" standalone="no"?><!DOCTYPE svg PUBLIC "-//W3C//DTD SVG 1.1//EN" "http://www.w3.org/Graphics/SVG/1.1/DTD/svg11.dtd"><svg t="1696441875897" class="icon" viewBox="0 0 1024 1024" version="1.1" xmlns="http://www.w3.org/2000/svg" p-id="4838" xmlns:xlink="http://www.w3.org/1999/xlink" width="200" height="200"><path d="M677.333333 245.333333a101.333333 101.333333 0 1 1-76.032 168.362667l-154.026666 85.546667a107.776 107.776 0 0 1-0.64 29.909333l151.978666 84.394667a101.333333 101.333333 0 1 1-22.570666 60.8l-158.250667-87.978667a106.666667 106.666667 0 1 1 2.944-145.621333l155.562667-86.357334a101.333333 101.333333 0 0 1 101.034666-109.056z m0 394.666667a37.333333 37.333333 0 1 0 0 74.666667 37.333333 37.333333 0 0 0 0-74.666667zM341.333333 469.333333a42.666667 42.666667 0 1 0 0 85.333334 42.666667 42.666667 0 0 0 0-85.333334z m336-160a37.333333 37.333333 0 1 0 0 74.666667 37.333333 37.333333 0 0 0 0-74.666667z" fill="#333333" p-id="4839"></path></svg>