<?xml version="1.0" standalone="no"?><!DOCTYPE svg PUBLIC "-//W3C//DTD SVG 1.1//EN" "http://www.w3.org/Graphics/SVG/1.1/DTD/svg11.dtd"><svg t="1696443518169" class="icon" viewBox="0 0 1025 1024" version="1.1" xmlns="http://www.w3.org/2000/svg" p-id="3227" xmlns:xlink="http://www.w3.org/1999/xlink" width="200.1953125" height="200"><path d="M162.769775 246.529359c0 27.557935-22.241604 49.865033-49.797492 49.865033-27.555888 0-49.799538-22.307099-49.799538-49.865033 0-27.427968 22.243651-49.72995 49.799538-49.72995C140.528171 196.798385 162.769775 219.10139 162.769775 246.529359z" fill="#231815" p-id="3228"></path><path d="M162.769775 512.117686c0 27.556911-22.241604 49.862986-49.797492 49.862986-27.555888 0-49.799538-22.306075-49.799538-49.862986 0-27.424898 22.243651-49.73302 49.799538-49.73302C140.528171 462.385689 162.769775 484.693811 162.769775 512.117686z" fill="#231815" p-id="3229"></path><path d="M162.769775 777.707037c0 27.561005-22.241604 49.86094-49.797492 49.86094-27.555888 0-49.799538-22.299935-49.799538-49.86094 0-27.426945 22.243651-49.730973 49.799538-49.730973C140.528171 727.976063 162.769775 750.280092 162.769775 777.707037z" fill="#231815" p-id="3230"></path><path d="M262.367828 213.396184l663.972353 0 0 66.397338-663.972353 0 0-66.397338Z" fill="#231815" p-id="3231"></path><path d="M295.56445 246.592807c0 18.284289-14.846838 33.200716-33.196622 33.200716-18.35183 0-33.199692-14.916427-33.199692-33.200716 0-18.283266 14.848885-33.196622 33.199692-33.196622C280.717612 213.396184 295.56445 228.309541 295.56445 246.592807z" fill="#231815" p-id="3232"></path><path d="M959.53578 246.592807c0 18.284289-14.846838 33.200716-33.195599 33.200716-18.35183 0-33.201739-14.916427-33.201739-33.200716 0-18.283266 14.849909-33.196622 33.201739-33.196622C944.688942 213.396184 959.53578 228.309541 959.53578 246.592807z" fill="#231815" p-id="3233"></path><path d="M262.367828 478.984512l663.972353 0 0 66.397338-663.972353 0 0-66.397338Z" fill="#231815" p-id="3234"></path><path d="M295.56445 512.184204c0 18.282242-14.846838 33.197645-33.196622 33.197645-18.35183 0-33.199692-14.915403-33.199692-33.197645 0-18.286336 14.848885-33.198669 33.199692-33.198669C280.717612 478.984512 295.56445 493.897868 295.56445 512.184204z" fill="#231815" p-id="3235"></path><path d="M959.53578 512.184204c0 18.282242-14.846838 33.197645-33.195599 33.197645-18.35183 0-33.201739-14.915403-33.201739-33.197645 0-18.286336 14.849909-33.198669 33.201739-33.198669C944.688942 478.984512 959.53578 493.897868 959.53578 512.184204z" fill="#231815" p-id="3236"></path><path d="M262.367828 744.573862l663.972353 0 0 66.398361-663.972353 0 0-66.398361Z" fill="#231815" p-id="3237"></path><path d="M295.56445 777.775601c0 18.282242-14.846838 33.195599-33.196622 33.195599-18.35183 0-33.199692-14.913357-33.199692-33.195599 0-18.290429 14.848885-33.201739 33.199692-33.201739C280.717612 744.573862 295.56445 759.485172 295.56445 777.775601z" fill="#231815" p-id="3238"></path><path d="M959.53578 777.775601c0 18.282242-14.846838 33.195599-33.195599 33.195599-18.35183 0-33.201739-14.913357-33.201739-33.195599 0-18.290429 14.849909-33.201739 33.201739-33.201739C944.688942 744.573862 959.53578 759.485172 959.53578 777.775601z" fill="#231815" p-id="3239"></path></svg>