<?xml version="1.0" standalone="no"?><!DOCTYPE svg PUBLIC "-//W3C//DTD SVG 1.1//EN" "http://www.w3.org/Graphics/SVG/1.1/DTD/svg11.dtd"><svg t="1696443509053" class="icon" viewBox="0 0 1025 1024" version="1.1" xmlns="http://www.w3.org/2000/svg" p-id="3079" xmlns:xlink="http://www.w3.org/1999/xlink" width="200.1953125" height="200"><path d="M864.128367 960.514108l-703.988615 0c-88.250066 0-160.005692-72.86392-160.005692-162.480165L0.13406 343.097257c0-17.960909 14.314694-32.499717 32.004413-32.499717 17.687673 0 32.001343 14.538809 32.001343 32.499717l0 454.936686c0 53.7589 43.057674 97.491988 95.999936 97.491988l703.988615 0c52.942262 0 95.997889-43.732065 95.997889-97.491988L960.126256 343.097257c0-17.960909 14.315717-32.499717 32.008507-32.499717 17.683579 0 31.999296 14.538809 31.999296 32.499717l0 454.936686C1024.133036 887.650188 952.385597 960.514108 864.128367 960.514108z" fill="#231815" p-id="3080"></path><path d="M512.128943 142.535994l113.509545 115.258459c-29.51152 16.688878-49.505835 48.618586-49.505835 85.302803l0 162.475049-127.999232 0L448.13342 343.097257c0-36.68524-19.998409-68.614949-49.502765-85.302803L512.128943 142.535994M512.128943 64.151073c-8.185819 0-16.366521 3.112023-22.618199 9.455803l-210.748764 214.017361c-12.432743 12.629228-8.25029 22.973303 9.375981 22.973303l63.995523 0c17.628318 0 32.008507 14.60021 32.008507 32.499717l0 194.971696c0 17.894391 14.367908 32.496647 31.996226 32.496647l191.990662 0c17.631388 0 32.00646-14.602257 32.00646-32.496647L640.135339 343.097257c0-17.899507 14.370978-32.499717 32.001343-32.499717l63.990406 0c17.629342 0 21.822028-10.344075 9.375981-22.973303L534.755328 73.606876C528.510814 67.263096 520.321925 64.151073 512.128943 64.151073L512.128943 64.151073z" fill="#231815" p-id="3081"></path><path d="M640.136362 668.049401c0 17.899507-14.311624 32.500741-32.00646 32.500741-17.685626 0-31.99725-14.601233-31.99725-32.500741 0-18.02538 14.3106-32.4946 31.99725-32.4946C625.823715 635.5548 640.136362 650.024021 640.136362 668.049401z" fill="#231815" p-id="3082"></path><path d="M448.13342 668.049401c0 17.899507-14.308554 32.500741-31.995203 32.500741-17.687673 0-31.996226-14.601233-31.996226-32.500741 0-18.02538 14.30753-32.4946 31.996226-32.4946C433.823843 635.5548 448.13342 650.024021 448.13342 668.049401z" fill="#231815" p-id="3083"></path><path d="M416.138217 635.5548l191.990662 0 0 64.995341-191.990662 0 0-64.995341Z" fill="#231815" p-id="3084"></path></svg>