<?xml version="1.0" encoding="utf-8"?>
<!-- Generator: Adobe Illustrator 27.0.0, SVG Export Plug-In . SVG Version: 6.00 Build 0)  -->
<svg version="1.1" id="图层_1" xmlns="http://www.w3.org/2000/svg" xmlns:xlink="http://www.w3.org/1999/xlink" x="0px" y="0px"
	 viewBox="0 0 828 812" style="enable-background:new 0 0 828 812;" xml:space="preserve">
<style type="text/css">
	.st0{display:none;fill:#053554;stroke:#000000;stroke-miterlimit:10;}
</style>
<rect x="-0.5" y="0.5" class="st0" width="828" height="811"/>
<g>
	<g>
		<path d="M800.6,341.8c-0.1-0.3-0.2-0.7-0.4-1l-25.3-62c-0.4-0.9-0.6-1.8-0.7-2.8l-4.7-34.8c-0.1-0.5-0.2-1-0.3-1.5
			c-14-51.3-28.1-104.9-51.9-149.4c-7.6-14.3-20-25-29.4-37c-3-3.8-8-5.2-12.5-3.7c-35.2,12.3-97.5,79.8-126.8,111.8
			c-5.8,6.3-14.6,8.6-22.7,6c-58.1-18.8-152.3-16.9-212-0.8c-12.9,3.5-26.5-1.1-34.7-11.7c-22.1-28.5-65.5-58.2-87.8-78.1
			c-10.1-9-20.5-22.2-37.2-25.9c-4.3-1-8.8,0.6-11.5,4.1c-49,62.7-63.9,129.3-85.3,220.2c-8.4,35.7-27.1,70.3-37.2,112.1
			C-13,524.7,74.6,676.9,160.4,721.2c34.9,18,110,48.6,169.5,40.4c0.3,0,0.6-0.1,0.9-0.1l63.9-3.3c1,0,2-0.2,3-0.6
			c6.5-2.2,15.2-7.3,24.4-6.2c42,5,78.8,14.8,129,5.6c134-24.5,205.6-93.3,246.8-200.6C820.7,497.3,819.8,404.4,800.6,341.8z
			 M573.4,736.9c-42.9,9.1-100.8,6.5-143.9,0c-25.9-3.9-47.5,3.8-67,6.7c-45.4,6.9-103.9-1-138.9-13.5C127,695.9,74.9,626,45,530.7
			c-7.8-24.7-15.7-62.2-9.9-94.1l5-57.1l22.7-86.3c0.4-1.4,0.9-2.7,1.7-3.9c3.9-5.8,10.9-9.4,11.2-17.7l4.1-28.9
			C94,191.6,118.9,99.2,149.2,63.4c44.4,30.3,81,71.3,118.5,108.1c0.4,0.4,0.8,0.7,1.2,1.1l9.5,7.6c7.9,4.8,14.6,5.9,23.4,4.7
			c8-1.1,16.8-2.8,26-4.9l99.6-11.8c23.5,0,101,17.6,113.8,16.5c0.4,0,0.8-0.1,1.1-0.2c13.4-4.8,21.4-17.4,29.8-26.9
			c16.5-18.7,88.8-86.9,110.4-95.2c9.9,25.3,24.6,51,36,77.3c18.5,42.9,24.2,84.8,37.2,134.5c2,7.6,8.4,8.4,11.2,13.5
			c8.7,34.7,17.4,69.5,26,104.2C830.7,561,707,708.6,573.4,736.9z M703.7,240.5c17.4-8.7-15.8-109-22.3-119.9
			c-15.8,5.7-84.7,90.1-75.7,103.1C631.2,225.2,680,248.3,703.7,240.5z M125.6,241.6c16,6.1,92.1-13,103-19.1
			c0.4-1.1,0.8-2.2,1.2-3.4c-5.1-21.1-39.9-55-54.6-71.7c-7.4-8.4-20.4-11.4-22.3-24.7C142.2,126.6,111.2,231.9,125.6,241.6z
			 M613.1,422c-13.2-23.9-42-29.5-71.9-38.1c0.8-1.1,1.7-2.2,2.5-3.4c13.2-2.8,45.1-16,43.4-28c-31,0.7-64.1,16.3-84.4,29.1
			c0.4,2.2,0.8,4.5,1.2,6.7C508.8,394.2,612,422.6,613.1,422z M253.4,354.8c-3.7,0.4-7.4,0.8-11.2,1.1c0,0.4,0,0.8,0,1.1
			c8.6,15.6,32.8,16.5,45.9,28c-7.4,2.2-14.9,4.5-22.3,6.7c-22.4,7.3-34.9,16.1-48.4,31.4c0.4,0.8,0.8,1.5,1.2,2.2
			c0.4,0,0.8,0,1.2,0c18.6-6.4,37.2-12.7,55.8-19c17.3-5.6,38.1-7.2,52.1-15.7c0-1.9,0-3.7,0-5.6
			C312.8,367.3,276.8,365.2,253.4,354.8z M480.4,503.8c-25.2,23.1-24.1,21-59.5,9c-0.8-8.2-1.6-16.4-2.5-24.6
			c12.8-8.5,38.2-23.6,27.3-44.8c-7-2.2-14.1-4.5-21.1-6.7c-20.9-0.6-38.6,0.8-50.9,7.8c-0.4,0.8-0.8,1.5-1.2,2.2
			c0.2,22.4,12.9,38.9,34.7,42.6c-0.5,8.4-1.7,18.8-5,24.7c-10.2,3.1-22.6,13.9-37.2,11.2c-8.3-2.2-16.5-4.5-24.8-6.7
			c-0.4,0.8-0.8,1.5-1.2,2.2c10.6,31.1,51.5,16.7,68.2,2.2c10.6,2,13.7,8,22.3,11.2c29,10.6,51.5-5.5,53.3-30.3
			c-0.8-0.8-1.6-1.5-2.5-2.2C480.4,502.3,480.4,503.1,480.4,503.8z M389.8,457.9c0.8-1.1,1.6-2.2,2.5-3.4
			c15.8-0.9,28.5-4.4,48.4-4.5c-3.5,10.8-17.2,21.8-27.3,26.9C403,474.3,395,465.3,389.8,457.9z M649.1,475.8
			c-9.5,1.1-19,2.2-28.5,3.4c0,0.4,0,0.8,0,1.1c0.4,0.8,0.8,1.5,1.2,2.2c20.6,5.5,106,29.4,127.8,14.6c0.8-0.4,1.7-0.8,2.5-1.1
			c-15.6-4.4-30.5-11.2-49.6-14.6C684.6,479.5,666.9,477.7,649.1,475.8z M210,482.5c-0.8-0.8-1.6-1.5-2.5-2.2
			c-2.9-0.8-5.8-1.5-8.7-2.2c-48.1-0.8-86.9,9.6-120.3,20.2c0,0.4,0,0.8,0,1.1c0.8,0,1.7,0,2.5,0c23.5,13.8,108.2-8.5,129-15.7
			C210,483.3,210,482.9,210,482.5z M543.6,479.2c-2.1,0-4.1,0-6.2,0c0.6,6.5,0.2,6.2,6.2,7.8c0.4-1.1,0.8-2.2,1.2-3.4
			C544.5,482.2,544.1,480.7,543.6,479.2z M293.1,481.4c-2.5,0.4-5,0.8-7.4,1.1c0,0.4,0,0.8,0,1.1c0.4,1.5,0.8,3,1.2,4.5
			c2.5-0.4,5-0.8,7.4-1.1C293.9,485.1,293.5,483.3,293.1,481.4z M582.1,493.7c0-0.4,0-0.8,0-1.1c-0.4-1.9-0.8-3.7-1.2-5.6
			c-1.2-0.8-2.5-1.5-3.7-2.2c-1.2,0-2.5,0-3.7,0c-1.7,1.5-3.3,3-5,4.5c0.4,2.2,0.8,4.5,1.2,6.7c2.5,0.4,5,0.8,7.4,1.1
			C578.8,496,580.4,494.9,582.1,493.7z M262.1,490.4c-1.2-1.1-2.5-2.2-3.7-3.4c-2.9,0.8-5.8,1.5-8.7,2.2c-0.7,5.5-0.2,5.8,2.5,10.1
			c0.4,0,0.8,0,1.2,0c4.5-0.7,3.8-0.5,6.2-2.2c2.6-2.3,1.7-1.1,2.5-5.6C262.1,491.1,262.1,490.8,262.1,490.4z M557.3,507.2
			c-7.3,0.2-8.2,0.5-11.2,4.5c-0.4,1.9-0.8,3.7-1.2,5.6c1.2,1.1,2.5,2.2,3.7,3.4c3.3-0.4,6.6-0.8,9.9-1.1c1.5-3.3,2.6-4.4,1.2-7.8
			C558.9,510.2,558.1,508.7,557.3,507.2z M501.5,511.7c0.8,1.9,1.6,3.7,2.5,5.6c5.6-0.2,6.7-0.8,9.9-2.2c0-1.5,0-3,0-4.5
			c-0.8-1.1-1.7-2.2-2.5-3.4C503.5,507.7,505,508,501.5,511.7z M317.9,509.4c-0.4,2.6-0.8,5.2-1.2,7.8c1.2,0.4,2.5,0.8,3.7,1.1
			c2.1,0.4,4.1,0.8,6.2,1.1c0.4-1.1,0.8-2.2,1.2-3.4c0-1.1,0-2.2,0-3.4c-1.2-1.5-2.5-3-3.7-4.5C322,508.7,320,509.1,317.9,509.4z
			 M637.9,509.4c-8.3,0.8-16.5,1.5-24.8,2.2c0.8,1.1,1.7,2.2,2.5,3.4c34.6,11.8,68.2,32.2,107.9,37c0-0.4,0-0.8,0-1.1
			C701.3,518.7,673.3,527.1,637.9,509.4z M270.8,511.7c-0.4,1.9-0.8,3.7-1.2,5.6c4.1,3.7,4.3,5,12.4,5.6c1.2-1.1,2.5-2.2,3.7-3.4
			c0-1.9,0-3.7,0-5.6c-1.2-1.5-2.5-3-3.7-4.5C278.2,510.2,274.5,510.9,270.8,511.7z M217.4,513.9c-1.6-0.8-3.3-1.5-5-2.2
			c-49.6-1-82.2,17.1-105.4,40.3c0.4,0.8,0.8,1.5,1.2,2.2c0.4,0,0.8,0,1.2,0C133,549,204.8,527.5,217.4,513.9z M577.1,522.9
			c1.2,5.6,0.9,4.2,5,6.7c1.2-0.4,2.5-0.8,3.7-1.1c0.4-2.6,0.8-5.2,1.2-7.8c-0.8-0.4-1.7-0.8-2.5-1.1
			C579.1,520.4,580,520.2,577.1,522.9z M244.7,521.8c-0.4,0.8-0.8,1.5-1.2,2.2c0.9,6.5,1,4.7,5,7.8c1.2-0.4,2.5-0.8,3.7-1.1
			c0.8-1.1,1.6-2.2,2.5-3.4c-1.6-2.2-3.3-4.5-5-6.7C248,521,246.4,521.4,244.7,521.8z M613.1,539.7c-5,0.5-4.8,0.4-7.4,2.2
			c0.8,0.8,1.7,1.5,2.5,2.2c5.7,10.3,92.4,73.4,106.7,79.6c0-0.4,0-0.8,0-1.1C689.4,581.8,661.1,560.3,613.1,539.7z M115.7,626
			c0.4,0,0.8,0,1.2,0c18.4-13.9,102.8-68.6,107.9-84C182.9,542.5,126.5,595.6,115.7,626z M531.2,546.4c0.8,2.2,1.7,4.5,2.5,6.7
			c0.4,0,0.8,0,1.2,0c1.7-0.4,3.3-0.8,5-1.1c-0.4-2.2-0.8-4.5-1.2-6.7C536.2,545.7,533.7,546,531.2,546.4z M290.6,548.7
			c0,0.4,0,0.8,0,1.1c0.4,1.5,0.8,3,1.2,4.5c0.4,0,0.8,0,1.2,0c2.1-0.4,4.1-0.8,6.2-1.1c0-0.4,0-0.8,0-1.1c-0.4-1.5-0.8-3-1.2-4.5
			C295.6,547.9,293.1,548.3,290.6,548.7z M563.5,552c1.7,0.8,3.3,1.5,5,2.2c0-1.9,0-3.7,0-5.6c-1.7,0-3.3,0-5,0
			C563.5,549.8,563.5,550.9,563.5,552z M262.1,555.4c1.6,0,3.3,0,5,0c0-1.5,0-3,0-4.5c-1.6,0-3.3,0-5,0
			C262.1,552.4,262.1,553.9,262.1,555.4z"/>
	</g>
</g>
</svg>
