<?xml version="1.0" standalone="no"?><!DOCTYPE svg PUBLIC "-//W3C//DTD SVG 1.1//EN" "http://www.w3.org/Graphics/SVG/1.1/DTD/svg11.dtd"><svg t="1696441823238" class="icon" viewBox="0 0 1024 1024" version="1.1" xmlns="http://www.w3.org/2000/svg" p-id="4266" xmlns:xlink="http://www.w3.org/1999/xlink" width="200" height="200"><path d="M233.898667 488.832l242.389333-231.338667a21.333333 21.333333 0 0 1 30.165333 0.682667l14.72 15.445333a21.333333 21.333333 0 0 1 1.834667 27.264l-2.56 2.901334-184.576 176.213333H778.666667a21.333333 21.333333 0 0 1 21.333333 21.333333v21.333334a21.333333 21.333333 0 0 1-21.333333 21.333333H335.872l184.618667 176.213333a21.333333 21.333333 0 0 1 3.072 27.136l-2.389334 3.029334-14.72 15.445333a21.333333 21.333333 0 0 1-30.165333 0.682667l-242.346667-231.338667a32 32 0 0 1 0-46.336z" fill="#333333" p-id="4267"></path></svg>