<?xml version="1.0" standalone="no"?><!DOCTYPE svg PUBLIC "-//W3C//DTD SVG 1.1//EN" "http://www.w3.org/Graphics/SVG/1.1/DTD/svg11.dtd"><svg t="1696441933420" class="icon" viewBox="0 0 1024 1024" version="1.1" xmlns="http://www.w3.org/2000/svg" p-id="5126" xmlns:xlink="http://www.w3.org/1999/xlink" width="200" height="200"><path d="M546.944 352.512l2.773333 2.602667 163.114667 163.114666a21.333333 21.333333 0 0 1 0 30.208l-15.061333 15.061334a21.333333 21.333333 0 0 1-27.221334 2.474666l-2.986666-2.474666-123.562667-123.562667V789.333333a21.333333 21.333333 0 0 1-21.333333 21.333334h-21.333334a21.333333 21.333333 0 0 1-20.992-17.493334l-0.341333-3.84v-349.482666l-123.562667 123.648a21.333333 21.333333 0 0 1-27.221333 2.474666l-2.986667-2.474666-15.061333-15.061334a21.333333 21.333333 0 0 1 0-30.208l163.114667-163.114666a53.333333 53.333333 0 0 1 72.661333-2.56zM725.333333 234.666667V256a21.333333 21.333333 0 0 1-21.333333 21.333333h-384A21.333333 21.333333 0 0 1 298.666667 256v-21.333333a21.333333 21.333333 0 0 1 21.333333-21.333334h384a21.333333 21.333333 0 0 1 21.333333 21.333334z" fill="#333333" p-id="5127"></path></svg>