<?xml version="1.0" standalone="no"?><!DOCTYPE svg PUBLIC "-//W3C//DTD SVG 1.1//EN" "http://www.w3.org/Graphics/SVG/1.1/DTD/svg11.dtd"><svg t="1696460996133" class="icon" viewBox="0 0 1024 1024" version="1.1" xmlns="http://www.w3.org/2000/svg" p-id="1217" xmlns:xlink="http://www.w3.org/1999/xlink" width="200" height="200"><path d="M898.8 774h-70.9V436.3c0-41.1-8.4-81-24.9-118.5-15.9-36.2-38.7-68.6-67.7-96.4-52.3-50.2-119.6-80.5-192.2-87.1V94.4c0-16.6-13.4-30-30-30s-30 13.4-30 30v39.8c-72.5 6.6-139.9 36.9-192.2 87.1-29 27.8-51.8 60.3-67.7 96.4-16.5 37.5-24.9 77.4-24.9 118.5V774h-70.9c-16.6 0-30 13.4-30 30s13.4 30 30 30h260.7c0.3 68.7 56.3 124.5 125 124.5 68.8 0 124.7-55.8 125-124.5h260.7c16.6 0 30-13.4 30-30s-13.4-30-30-30zM513.1 898.5c-35.7 0-64.7-28.9-65-64.5h130c-0.3 35.6-29.3 64.5-65 64.5zM767.9 774H258.3V436.3c0-134.2 114.3-243.4 254.8-243.4s254.8 109.2 254.8 243.4V774z" p-id="1218"></path></svg>